HIERARCHY
ROOT Hips
{
	OFFSET -14.64140 90.27770 -84.91600
	CHANNELS 6 Xposition Yposition Zposition Zrotation Xrotation Yrotation
	JOINT Spine
	{
		OFFSET 0.00000 13.20850 -1.60436
		CHANNELS 3 Zrotation Xrotation Yrotation
		JOINT Spine1
		{
			OFFSET 0.00000 8.61716 0.00000
			CHANNELS 3 Zrotation Xrotation Yrotation
			JOINT Spine2
			{
				OFFSET 0.00000 8.61717 0.00000
				CHANNELS 3 Zrotation Xrotation Yrotation
				JOINT Spine3
				{
					OFFSET 0.00000 8.61717 0.00000
					CHANNELS 3 Zrotation Xrotation Yrotation
					JOINT Neck
					{
						OFFSET 0.00000 11.07920 1.10792
						CHANNELS 3 Zrotation Xrotation Yrotation
						JOINT Neck1
						{
							OFFSET 0.00000 7.08032 0.00000
							CHANNELS 3 Zrotation Xrotation Yrotation
							JOINT Head
							{
								OFFSET 0.00000 7.08031 0.00000
								CHANNELS 3 Zrotation Xrotation Yrotation
								End site
								{
									OFFSET 0.00000 0.00000 0.00000
								}
							}
						}
					}
					JOINT RightShoulder
					{
						OFFSET -0.01000 7.91373 5.19711
						CHANNELS 3 Zrotation Xrotation Yrotation
						JOINT RightArm
						{
							OFFSET -18.41580 0.00000 0.00000
							CHANNELS 3 Zrotation Xrotation Yrotation
							JOINT RightForeArm
							{
								OFFSET -29.11090 0.00000 0.00000
								CHANNELS 3 Zrotation Xrotation Yrotation
								JOINT RightHand
								{
									OFFSET -24.65040 0.00000 0.00000
									CHANNELS 3 Zrotation Xrotation Yrotation
									JOINT RightHandThumb1
									{
										OFFSET -5.35114 -0.85590 3.97906
										CHANNELS 3 Zrotation Xrotation Yrotation
										JOINT RightHandThumb2
										{
											OFFSET -4.52789 0.00000 0.00000
											CHANNELS 3 Zrotation Xrotation Yrotation
											JOINT RightHandThumb3
											{
												OFFSET -2.46976 0.00000 0.00000
												CHANNELS 3 Zrotation Xrotation Yrotation
												End site
												{
													OFFSET 0.00000 0.00000 0.00000
												}
											}
										}
									}
									JOINT RightHandIndex1
									{
										OFFSET -14.26970 0.00000 2.88139
										CHANNELS 3 Zrotation Xrotation Yrotation
										JOINT RightHandIndex2
										{
											OFFSET -5.48836 0.00000 0.00000
											CHANNELS 3 Zrotation Xrotation Yrotation
											JOINT RightHandIndex3
											{
												OFFSET -3.01859 0.00000 0.00000
												CHANNELS 3 Zrotation Xrotation Yrotation
												End site
												{
													OFFSET 0.00000 0.00000 0.00000
												}
											}
										}
									}
									JOINT RightHandMiddle1
									{
										OFFSET -14.26970 0.00000 -0.09147
										CHANNELS 3 Zrotation Xrotation Yrotation
										JOINT RightHandMiddle2
										{
											OFFSET -6.17441 0.00000 0.00000
											CHANNELS 3 Zrotation Xrotation Yrotation
											JOINT RightHandMiddle3
											{
												OFFSET -3.56743 0.00000 0.00000
												CHANNELS 3 Zrotation Xrotation Yrotation
												End site
												{
													OFFSET 0.00000 0.00000 0.00000
												}
											}
										}
									}
									JOINT RightHandRing1
									{
										OFFSET -12.69180 0.00000 -3.06433
										CHANNELS 3 Zrotation Xrotation Yrotation
										JOINT RightHandRing2
										{
											OFFSET -5.62556 0.00000 0.00000
											CHANNELS 3 Zrotation Xrotation Yrotation
											JOINT RightHandRing3
											{
												OFFSET -3.56744 0.00000 0.00000
												CHANNELS 3 Zrotation Xrotation Yrotation
												End site
												{
													OFFSET 0.00000 0.00000 0.00000
												}
											}
										}
									}
									JOINT RightHandPinky1
									{
										OFFSET -11.11390 0.00000 -6.03719
										CHANNELS 3 Zrotation Xrotation Yrotation
										JOINT RightHandPinky2
										{
											OFFSET -4.52789 0.00000 0.00000
											CHANNELS 3 Zrotation Xrotation Yrotation
											JOINT RightHandPinky3
											{
												OFFSET -2.46976 0.00000 0.00000
												CHANNELS 3 Zrotation Xrotation Yrotation
												End site
												{
													OFFSET 0.00000 0.00000 0.00000
												}
											}
										}
									}
								}
							}
						}
					}
					JOINT LeftShoulder
					{
						OFFSET 0.01000 7.91373 5.19711
						CHANNELS 3 Zrotation Xrotation Yrotation
						JOINT LeftArm
						{
							OFFSET 18.41580 0.00000 0.00000
							CHANNELS 3 Zrotation Xrotation Yrotation
							JOINT LeftForeArm
							{
								OFFSET 29.11090 0.00000 0.00000
								CHANNELS 3 Zrotation Xrotation Yrotation
								JOINT LeftHand
								{
									OFFSET 24.65040 0.00000 0.00000
									CHANNELS 3 Zrotation Xrotation Yrotation
									JOINT LeftHandThumb1
									{
										OFFSET 5.35114 -0.85590 3.97906
										CHANNELS 3 Zrotation Xrotation Yrotation
										JOINT LeftHandThumb2
										{
											OFFSET 4.52789 0.00000 0.00000
											CHANNELS 3 Zrotation Xrotation Yrotation
											JOINT LeftHandThumb3
											{
												OFFSET 2.46977 0.00000 0.00000
												CHANNELS 3 Zrotation Xrotation Yrotation
												End site
												{
													OFFSET 0.00000 0.00000 0.00000
												}
											}
										}
									}
									JOINT LeftHandIndex1
									{
										OFFSET 14.26970 0.00000 2.88139
										CHANNELS 3 Zrotation Xrotation Yrotation
										JOINT LeftHandIndex2
										{
											OFFSET 5.48836 0.00000 0.00000
											CHANNELS 3 Zrotation Xrotation Yrotation
											JOINT LeftHandIndex3
											{
												OFFSET 3.01859 0.00000 0.00000
												CHANNELS 3 Zrotation Xrotation Yrotation
												End site
												{
													OFFSET 0.00000 0.00000 0.00000
												}
											}
										}
									}
									JOINT LeftHandMiddle1
									{
										OFFSET 14.26970 0.00000 -0.09147
										CHANNELS 3 Zrotation Xrotation Yrotation
										JOINT LeftHandMiddle2
										{
											OFFSET 6.17440 0.00000 0.00000
											CHANNELS 3 Zrotation Xrotation Yrotation
											JOINT LeftHandMiddle3
											{
												OFFSET 3.56744 0.00000 0.00000
												CHANNELS 3 Zrotation Xrotation Yrotation
												End site
												{
													OFFSET 0.00000 0.00000 0.00000
												}
											}
										}
									}
									JOINT LeftHandRing1
									{
										OFFSET 12.69180 0.00000 -3.06433
										CHANNELS 3 Zrotation Xrotation Yrotation
										JOINT LeftHandRing2
										{
											OFFSET 5.62556 0.00000 0.00000
											CHANNELS 3 Zrotation Xrotation Yrotation
											JOINT LeftHandRing3
											{
												OFFSET 3.56744 0.00000 0.00000
												CHANNELS 3 Zrotation Xrotation Yrotation
												End site
												{
													OFFSET 0.00000 0.00000 0.00000
												}
											}
										}
									}
									JOINT LeftHandPinky1
									{
										OFFSET 11.11390 0.00000 -6.03719
										CHANNELS 3 Zrotation Xrotation Yrotation
										JOINT LeftHandPinky2
										{
											OFFSET 4.52789 0.00000 0.00000
											CHANNELS 3 Zrotation Xrotation Yrotation
											JOINT LeftHandPinky3
											{
												OFFSET 2.46976 0.00000 0.00000
												CHANNELS 3 Zrotation Xrotation Yrotation
												End site
												{
													OFFSET 0.00000 0.00000 0.00000
												}
											}
										}
									}
								}
							}
						}
					}
					JOINT pCube4
					{
						OFFSET 0.00000 10.91090 1.10792
						CHANNELS 3 Zrotation Xrotation Yrotation
						End site
						{
							OFFSET 0.00000 0.00000 0.00000
						}
					}
				}
			}
		}
	}
	JOINT RightUpLeg
	{
		OFFSET -9.98441 0.00000 0.00000
		CHANNELS 3 Zrotation Xrotation Yrotation
		JOINT RightLeg
		{
			OFFSET 0.00000 -42.11790 0.00000
			CHANNELS 3 Zrotation Xrotation Yrotation
			JOINT RightFoot
			{
				OFFSET 0.00000 -45.00020 -0.00001
				CHANNELS 3 Zrotation Xrotation Yrotation
				JOINT RightForeFoot
				{
					OFFSET 0.00000 -3.74820 0.00000
					CHANNELS 3 Zrotation Xrotation Yrotation
					JOINT RightToeBase
					{
						OFFSET 0.00000 0.06325 14.43120
						CHANNELS 3 Zrotation Xrotation Yrotation
						End site
						{
							OFFSET 0.00000 0.00000 0.00000
						}
					}
				}
			}
		}
	}
	JOINT LeftUpLeg
	{
		OFFSET 9.98441 0.00000 0.00000
		CHANNELS 3 Zrotation Xrotation Yrotation
		JOINT LeftLeg
		{
			OFFSET 0.00000 -42.11800 0.00000
			CHANNELS 3 Zrotation Xrotation Yrotation
			JOINT LeftFoot
			{
				OFFSET 0.00000 -45.00070 0.00000
				CHANNELS 3 Zrotation Xrotation Yrotation
				JOINT LeftForeFoot
				{
					OFFSET 0.00000 -3.74824 0.00000
					CHANNELS 3 Zrotation Xrotation Yrotation
					JOINT LeftToeBase
					{
						OFFSET 0.00000 0.06325 14.43110
						CHANNELS 3 Zrotation Xrotation Yrotation
						End site
						{
							OFFSET 0.00000 0.00000 0.00000
						}
					}
				}
			}
		}
	}
}
MOTION
Frames: 4
Frame Time: 0.050000
0.04697388696571172 -0.011176959714568072 -0.023915858517730485 -0.022520127236344063 -0.02436425951258249 0.026012544044486108 1.7800092716996265 1.7619190696951275 -1.7486467270077264 -0.6970445711212988 3.6249755379291875 0.37546939211925984 -0.7979744157779177 -1.3362171387523096 0.8615510839475058 -0.7719373656988926 -0.57452741260831 -0.3856835626182823 0.10768571185637787 12.01515880052295 -0.9548807372466064 0.45165948821055674 -0.44015415367734434 -2.5348433082265904 0.7722244210340945 -16.16209602636062 -0.22801821787662893 -6.979174134966377 2.7207383454264864 -16.563664102754355 77.11334050846783 1.0793989827340174 8.958401150757279 -19.173597599764193 6.963597179695869 79.12669896176241 8.088838397337199 0.47951224362861256 3.898098971929341 4.48796001119539 -0.16409269625080722 -1.6188832043862187 -0.03259373613701159 0.016510621432519898 -56.204255898085684 0.015198096944517901 0.033881738206168556 -56.26235907412473 -38.77002724385592 0.0007250824710301194 0.04638325565425001 -0.03452950988027926 -0.026562422162542194 -0.028240634211898437 -0.010526246016404374 -0.03936941019483305 0.018165132936073497 -36.69568007953173 0.026425123467532986 0.014071987778154672 0.04790410392162184 -0.04114717786105526 0.01151135726143845 0.015367707311616727 -0.032877887026422484 -0.00091494056796692 -19.756879573995537 -0.005490516862223342 0.02903993225223524 0.041250290267406696 -0.008106018078804629 0.045659586550403294 0.017221033081078543 0.037167872673856704 0.016891395934932264 24.064849555435988 -0.017871779034278078 0.03548713208372914 28.854457541934 -0.015007645287986074 -0.013953208045494691 28.872162012481514 -0.010872354292718031 -0.043197498956907776 6.687656861872571 1.7166823462270793 14.43975015820275 -75.93915306813875 19.2123355839733 -9.428364436367781 15.111861370594092 4.053524330587809 -57.891793685868194 -15.87902175669797 6.687296236915255 -2.9928592541251353 -0.4688021796536073 0.03989563506605484 -8.138574281462773 0.01774388905618514 -0.0260167919056963 44.55727601670585 -0.015784622355725222 -0.026124044561504613 44.562632949694475 12.503371934583708 -0.025955828121491796 -0.04676676326427877 -0.0013003073488996797 0.03397515411078302 -0.013852372289466792 -0.048852895867746444 0.039871704658656866 -0.015201384068862702 11.106674044010655 0.04246696646271288 -0.0317149118394555 0.032367479112358606 -0.02189389824461799 0.011929819225530325 -0.008522108147165986 0.0012914816550954286 0.004715879779693009 4.801896933446765 0.043849038007480294 0.007547742549918166 -0.04770144082422687 0.01317673047729087 0.016952754861766776 0.011243891734571618 -0.0046445759137624465 -0.0023536381607655223 -5.606025517667538 0.03258082133909187 -0.025369963845026447 -6.696342909017542 0.02249209156816905 -0.01114567026456387 -6.736887149368955 -0.04260070144900486 0.042258742918877726 -0.02633126962451468 -0.03924391212712519 0.0014652355200573141 8.053383635755388 3.4863928458806197 -19.258590932574556 -0.03345361661679169 10.440246464531898 0.05284949409055821 -5.639970675112215 -15.652449100766646 3.20438375986739 0.036067391984861585 -0.0013345471547030372 -0.009348659123147267 -0.04871876515387712 4.746800792336366 -0.046765991312069634 12.428450364038422 -8.203369095176061 6.837430191683176 0.030477694598064847 46.352657919408685 -0.039277476519657385 -4.3262540850561555 -14.747883356009527 -3.8465615257353485 0.009849630224959566 -0.017624662847141755 -0.04627189472533234 0.04755469930132672 -10.708676608072876 -0.037460778971126166 
-6.531280320686506e-05 0.042693740503785015 0.03383089755125205 -0.025418109315250723 0.034006686515960186 0.030337505525651266 1.4746991815075308 1.6255983304657504 -1.6622247709161653 -0.632015043499377 3.680789950018149 0.32217516242684185 -0.7764607357964985 -1.393362018434108 0.9085161234526606 -0.7059319828704527 -0.5915164499554728 -0.37960849913359473 0.1573530820996805 12.10485323872787 -0.9455668805026534 0.4494448261640151 -0.4854441675215381 -2.573196223893518 0.8348648200601413 -16.096665542084843 -0.23133557699611543 -6.459061918550646 2.538596634744793 -16.472231922378597 77.11223452075343 0.6766611372739488 8.69982009384315 -19.201768765248776 8.014300218764902 75.27295087848215 8.987116594131153 0.5185688987461314 4.4437621271892676 4.51021995728533 -0.14777368676468175 -1.603088134264451 -0.02959944679904704 -0.012680974763551974 -56.204593391898946 -0.03385201181460274 0.002229464910284805 -56.27745898435124 -38.74963936969718 0.015330147336635503 0.047370564747735135 -0.04550698084611049 0.0493759951577111 0.04734349652012897 -0.029003519338530084 -0.0068245082158280195 0.04324862119654757 -36.68489698007783 -0.009142990295258056 -0.00845939676372047 -0.0186351166724714 0.02825292684963633 0.02785915969948544 0.022407293074895446 -0.021398491818578984 -0.028358714233954217 -19.732477843773623 -0.034163078503254486 -0.03997281581443977 0.009567700152211209 0.01613831891878727 0.047638835123692796 -0.000713127535067996 0.04158190450355627 0.005442642486338118 24.02050336047145 -0.044454107992460225 -0.012915950630652352 28.89723474366467 -0.04801087213750874 0.017903119576812978 28.909862808703753 0.014627545353827553 0.04145204525132201 6.282856234635378 1.6682276521774664 14.526218068772588 -76.57771870450912 17.595777908814142 -9.086234641988302 15.440163530502721 6.627341447627827 -55.457237046898854 -17.034507407814182 8.732281029039816 -4.238341216734389 -0.47488932216531143 0.05405956453239179 -8.123664317453997 0.027077831611017695 -0.0021581582281041014 44.52016520006188 -0.0489870564059357 0.01286479260695985 44.60108475144354 12.44831437262372 -0.04053929108828843 -0.023969500633391864 -0.006459132451870267 -0.041220472332703956 0.008632866946781458 -0.016500648043015216 -0.0336467901166845 0.011968621007745161 11.11358133439027 -0.026986216095497367 0.01016175322150815 0.04348187180351172 0.018551728309439647 -0.003609503655930208 -0.0392855751316681 -0.012367488775941472 0.026468552452062574 4.758284307412838 -0.021574685578312616 0.032882623285098715 -0.006262208302673425 0.045515482891836746 -0.0007953081553279697 0.005093193986673838 -0.0017944836745249293 0.013193924979862333 -5.62774685120214 -0.04872151855482458 -0.02158282835795866 -6.72756167482101 -0.023020065550965686 0.009873318285232897 -6.725974868198349 0.022522718862241376 0.011052927972008087 -0.03238117840171892 -0.02751334192830526 -0.010620970205269082 8.088728428154155 3.5150560310634433 -19.19721409537997 0.04866853400995502 10.422285014392896 0.025741997914573895 -5.577313566009085 -15.66121166512114 3.225231529353365 0.006373419083809422 -0.015838304200387784 -0.018439249823243794 -0.0231056071550691 4.734079223471808 0.027749051187125034 12.411376048265305 -8.218189513789836 6.840775607268837 0.02447128406389438 46.39861491341008 0.03690996927748598 -4.316590526988575 -14.767087641139454 -3.8432054572235907 -0.022239918234853374 -0.02711895318334159 0.0345459468014199 0.0377309267572897 -10.764431818783223 0.0036895363722055817 
0.03325729814511661 0.0004691937661332284 -0.006171341384959621 0.008016709768205933 0.04852339647805354 0.027852493861616263 0.875532495636802 1.5342116949359057 -1.5724390132463981 -0.6429803999405646 3.741111190630962 0.37334795590673653 -0.7564279342301806 -1.5411096918598537 0.9299814555425346 -0.7689221380412499 -0.6525382134141512 -0.3488511550718019 0.13332072483758825 12.272666660455533 -0.9848533574787589 0.46443486567521913 -0.5592779577648368 -2.729202580087753 0.812813978799967 -16.10427156269034 -0.27041023577209905 -5.476777643840916 2.252452102262049 -16.208765591302935 76.66552205501098 1.530371105862197 8.493745330137203 -19.22818932847777 8.588032460006598 73.75224247781733 10.160089223046324 0.4831316318574923 4.755755199838047 4.5726885322310205 -0.1055443416853564 -1.6102116632264163 0.039232868934218144 -0.00796220888404547 -56.209864012536265 0.0107263614695448 0.007250235650578665 -56.22059987965205 -38.78624826020237 0.04266731942450807 0.008359420282278538 -0.000737535591186288 0.021733124226556683 0.03566332798887538 0.02154090563643998 -0.038672108529547604 -0.046890007734889154 -36.65782281930997 -0.003983339518983986 0.0064704931818038896 -0.012756619294801397 0.023701841920167357 0.044006406745246134 -0.027274367275972232 0.016785082957119647 -0.03454286650058585 -19.77172859334251 0.01913421854971196 0.001485309648873499 0.02156034889974417 0.04432129817401322 0.042215055957217126 -0.03762871308079479 0.04328426942448479 0.03910824728764979 24.099074018793978 -0.04764885739983147 -0.003122826728854331 28.862676568153613 -0.03160397473525685 0.012760631275562644 28.896596619921084 -0.010938247814675508 0.04161870336051557 5.72596843111793 1.5718493194319747 14.51644998171907 -76.90086060926562 16.85830841524267 -8.94322826819839 15.897593249762828 7.705790320344327 -55.93197856829276 -17.952207977348248 10.57152218498159 -5.426951166051697 -0.5178672085484934 0.03385544922883879 -8.12316671668361 -0.0004936650798008545 -0.014612986665512098 44.52102025521733 0.008741049815732637 -0.04257394497598425 44.588335867783734 12.46718691128258 -0.001972587380426032 -0.01105378058415393 0.03104080933263038 0.027428111586426447 0.038476881152676494 0.013075388905110515 0.036155446052295946 0.01392490341258174 11.06494435834499 0.0024440731792062624 0.005700968749486201 -0.029023585114786452 -0.04702689200255283 0.012585409203451359 -0.03451091332416804 0.028431318821752732 -0.006605018259432097 4.745788389093662 -0.02633278111690146 -0.03277184890076621 -0.03726340265494913 -0.021302133621361064 -0.021174405270304012 0.015906323535698784 -0.009578912426632705 -0.010997178114610977 -5.641492209193614 0.029991494054589805 -0.045040854034408204 -6.673644726249324 0.049292583671242056 -0.033906907956626695 -6.749909524785771 -0.0020757018351057945 -0.035624994170864906 -0.009988948251216385 -0.006284783975434108 0.022616881025008643 8.092534636386643 3.4797284497075704 -19.1840538995177 0.02708589325651414 10.408713331193358 -0.0063207588631672244 -5.646579551215677 -15.707915228441436 3.212158690290845 -0.023820106862021326 -0.0010139297876994022 -0.029805352433690938 0.005189955919770494 4.695713375210394 -0.03179963732450892 12.441264353699943 -8.263508498084905 6.925363698085908 0.010854913249298586 46.36706152482075 -0.02209976190752474 -4.359512166602315 -14.728988291096842 -3.8483113283085832 -0.046391927138756686 0.029001429678278217 -0.030111528167010675 0.011130573546681375 -10.717261340826022 -0.03027082405523738 
0.036943551773455825 0.04568048083941176 0.04301370310122144 0.021896620517931162 -0.034665101380823175 0.03747652158727519 0.18902619153912847 1.4196206460917478 -1.4128086114032556 -0.52168562875603 3.7707705029844334 0.3052894408395537 -0.7591950341694568 -1.5900840176841435 0.9398713398445621 -0.7467594986992173 -0.712909986374786 -0.41719150141802647 0.13545753416713593 12.470309810756184 -1.0060014546343476 0.5042624042210766 -0.5446115492752809 -2.9330358821417852 0.9025503457289288 -15.948549105288917 -0.25676123558454694 -4.319614606640391 1.9441936722858943 -15.81025764272155 75.62240624951119 3.5032834584718087 8.49103676396896 -18.768622553688726 8.607687077862037 75.13437570485723 11.222047271183442 0.3661509284376401 4.754020481378568 4.492281805985224 -0.1661068627558713 -1.6326579398779641 -0.02049504080469036 0.028412167292723608 -56.266036566488516 0.045804334513660165 -0.0279741423431784 -56.216455090872195 -38.79946460321191 0.025879181719507646 0.04666452801842996 -0.0441538913622324 0.037068306155757104 -0.01140120425121848 -0.04944002410638419 0.04553009026717369 0.0323064006117422 -36.70663075543414 0.008013717048708017 0.030222281905046968 -0.030255964454386296 -0.014795594445629237 0.035956420367280376 0.020430874786278298 -0.005202478345440746 -0.004411851363718662 -19.740440487406165 -0.023398900088928337 -0.03811401752416641 0.0017290846980070754 -0.040412729441604366 -0.0037250773059185993 -0.01871628959212118 0.006977484849883084 -0.028797055868868115 24.07599088928362 0.003179354948000187 0.03785415993231426 28.82365331884209 0.011863878016969783 -0.03142081270305709 28.816193041268747 -0.012331045149422688 0.027605623188477934 4.926390134492376 1.4473482966770594 14.403662350026211 -76.71431241097375 17.600346150111548 -8.909528840296257 16.507289863108404 6.371610400063172 -59.878511046773404 -18.397871925644324 11.777551446797794 -6.607039257275336 -0.4513511784022585 0.07517846615292784 -8.111931478942266 0.004381916053416385 -0.03785204035288632 44.54481069741633 0.03188054659016547 -0.04767862513435712 44.54476483791329 12.469322715435027 -0.01987908601322286 0.022930466895449017 0.01651685907075485 -0.005611744859596195 0.026968434570102787 0.049860351362648964 0.004114124566815242 0.0298949905869598 11.110744865650258 0.03229937374401421 0.041847591605166844 0.001978930549492162 0.034647968443791186 -0.02411239997680696 -0.0014970641757245376 -0.022013948579532518 0.03468276234283848 4.749204873973823 -0.0032933524795548817 0.021761939823048804 0.03886830299274072 0.034783166233988215 0.019151411760893383 -0.02542853990132606 0.0016577203228891938 -0.009118629993029453 -5.612183601522834 0.016786398958178184 -0.03091101588114042 -6.729187297394201 0.0289539038413047 -0.012220393091780142 -6.703936978421831 -0.032533927423480734 0.014745761354999219 -0.046900690746423446 -0.016283213453676403 0.021790640284689872 8.046359114034201 3.541167288580723 -19.239095643706502 0.0412273661313373 10.42189816159957 0.0005415167602969562 -5.656577044910621 -15.682448637090545 3.2308912830046963 0.017905442105286225 -0.024486531278028724 0.04837009999306872 -0.04220835637181356 4.704768977545145 0.0042848737375518 12.49391259774369 -8.279588589701076 6.872001641744953 0.04907433357851677 46.41392709673961 0.042540414135829215 -4.3658193165365615 -14.698572114235667 -3.8519481636881907 -0.025020934949641322 -0.0031331070187899787 -0.018689588503559954 0.0025323768163664465 -10.765399089001678 0.03454060197107558 
